<?xml version="1.0" encoding="UTF-8"?>
<svg id="Layer_1" data-name="Layer 1" xmlns="http://www.w3.org/2000/svg" viewBox="0 0 595.28 419.53">
  <defs>
    <style>
      .cls-1 {
        fill: #e8481c;
      }

      .cls-2 {
        fill: #242424;
      }
    </style>
  </defs>
  <path class="cls-1" d="M228.48,241.38v-63.23c0-8.06-6.53-14.59-14.59-14.59h-29.73c13.53,20.54,66.19,28.32,29.66,85.69-1.61,2.2-3.17,4.49-4.81,6.72h4.89c8.06,0,14.59-6.53,14.59-14.59"/>
  <path class="cls-1" d="M181.14,163.56h-10.63c4.93,16.05,34.29,26.68,43.08,42.28,.39-6.24-6.18-10.99-9.98-15.31-8.03-8.25-20.87-15.19-22.47-26.97"/>
  <path class="cls-2" d="M201.84,228.74h-25.43c-1.15,3.11-2.08,5.65-2.77,7.61-.69,1.96-1.24,3.52-1.64,4.67-.41,1.15-.69,1.99-.87,2.51-.17,.52-.26,.89-.26,1.12,0,.58,.2,1.01,.61,1.3,.4,.29,1.24,.43,2.51,.43v2.08h-30.63v-2.08c1.27-.23,2.19-.61,2.77-1.12,.58-.52,1.15-1.47,1.73-2.86,.23-.58,.81-2.13,1.73-4.67,.92-2.54,2.13-5.74,3.63-9.6,1.5-3.86,3.17-8.16,5.02-12.89,1.84-4.73,3.69-9.55,5.54-14.45,1.2-3.19,2.39-6.33,3.57-9.42,4.88,5.22,10.8,10.23,16.45,15.37l-3.05,8.16h11.47c4.09,4.36,7.53,8.92,9.63,13.85m4.79,2.65h0c-4.96-26.18-50.35-41.35-46.89-67.84h-9.1c-8.06,0-14.59,6.53-14.59,14.59v63.23c0,8.06,6.53,14.59,14.59,14.59h53.6c2.97-7.84,4.43-16.36,2.38-24.58"/>
  <path class="cls-2" d="M440.11,205.71h-15.17l7.65-18.37,7.52,18.37Zm19.1,17.77l-20.76-46.58h-11.64l-20.9,46.58h11.65l3.46-8.38h22.96l3.46,8.38h11.78Zm-70.43-22.69h-10.91v-14.24h10.91c2.31,0,4.14,.64,5.49,1.93,1.35,1.29,2.03,3.02,2.03,5.19s-.68,3.9-2.03,5.19c-1.35,1.29-3.18,1.93-5.49,1.93m.53-23.89h-22.29v46.58h10.91v-13.18h11.38c3.59,0,6.73-.68,9.42-2.03,2.68-1.35,4.76-3.29,6.22-5.82,1.46-2.53,2.2-5.48,2.2-8.85s-.73-6.32-2.2-8.85c-1.46-2.53-3.54-4.47-6.22-5.82-2.68-1.35-5.82-2.03-9.42-2.03m-59.31,19.83l-15.9-19.83h-9.78v46.58h10.85v-29.21l13.84,16.84h2.13l13.71-16.77v29.15h10.85v-46.58h-9.78l-15.9,19.83Zm-50.6,8.98h-15.17l7.65-18.37,7.52,18.37Zm19.1,17.77l-20.76-46.58h-11.65l-20.89,46.58h11.64l3.46-8.38h22.96l3.46,8.38h11.78Z"/>
  <path class="cls-2" d="M449.09,231.15h-1.42v11.2h1.14v-9.58h.03l6.67,9.58h1.42v-11.2h-1.14v9.49h-.03l-6.67-9.49Zm-12.05,3.24c-.3-.72-.7-1.34-1.23-1.86-.52-.52-1.14-.93-1.85-1.23-.71-.3-1.48-.44-2.32-.44s-1.61,.15-2.32,.44c-.71,.3-1.33,.7-1.85,1.23-.52,.52-.93,1.14-1.23,1.86-.3,.72-.44,1.5-.44,2.36s.15,1.64,.44,2.36c.3,.72,.7,1.34,1.23,1.86,.52,.52,1.14,.93,1.85,1.23,.71,.3,1.48,.44,2.32,.44s1.61-.15,2.32-.44c.71-.3,1.33-.7,1.85-1.23,.52-.52,.93-1.14,1.23-1.86,.29-.72,.44-1.5,.44-2.36s-.15-1.64-.44-2.36m-1.11,4.2c-.21,.59-.51,1.1-.91,1.54-.4,.44-.88,.8-1.45,1.06-.57,.26-1.21,.4-1.93,.4s-1.36-.13-1.93-.4c-.57-.26-1.05-.62-1.45-1.06-.4-.44-.7-.96-.91-1.54-.21-.58-.32-1.2-.32-1.84s.11-1.26,.32-1.84c.21-.59,.51-1.1,.91-1.54,.4-.44,.88-.8,1.45-1.06,.57-.26,1.21-.4,1.93-.4s1.36,.13,1.93,.4c.57,.26,1.05,.62,1.45,1.06,.39,.44,.7,.96,.91,1.54,.21,.58,.32,1.2,.32,1.84s-.1,1.26-.32,1.84m-20.31-7.44h-1.14v11.2h1.14v-11.2Zm-14.53,1.04h3.75v-1.04h-8.64v1.04h3.75v10.15h1.14v-10.15Zm-14.34,7.72c-.21,.33-.44,.6-.69,.81-.25,.22-.51,.39-.79,.51-.28,.13-.56,.22-.85,.27-.29,.05-.58,.08-.88,.08-.72,0-1.36-.13-1.93-.4-.57-.26-1.05-.62-1.45-1.06-.4-.44-.7-.96-.91-1.54-.21-.58-.32-1.2-.32-1.84s.1-1.26,.32-1.84c.21-.59,.51-1.1,.91-1.54,.4-.44,.88-.8,1.45-1.06,.57-.26,1.21-.4,1.93-.4,.29,0,.59,.04,.89,.13,.29,.09,.57,.19,.83,.33,.26,.14,.49,.3,.69,.48,.2,.18,.36,.36,.48,.54l1-.74c-.5-.63-1.09-1.09-1.79-1.36s-1.39-.41-2.09-.41c-.83,0-1.6,.15-2.32,.44-.71,.3-1.33,.7-1.85,1.23-.52,.52-.93,1.14-1.23,1.86-.29,.72-.44,1.5-.44,2.36s.15,1.64,.44,2.36c.29,.72,.7,1.34,1.23,1.86,.52,.52,1.14,.93,1.85,1.23,.71,.3,1.48,.44,2.32,.44,.46,0,.9-.05,1.32-.16,.42-.11,.8-.25,1.16-.43,.36-.18,.68-.4,.96-.66,.28-.25,.51-.52,.7-.81l-.93-.66Zm-19.04-8.76h-1.14v6.9c0,.54-.05,1-.16,1.38s-.25,.71-.42,.97c-.17,.26-.37,.47-.58,.62-.22,.15-.43,.27-.65,.36-.22,.08-.43,.14-.63,.17-.21,.03-.38,.04-.51,.04-.15,0-.32-.01-.52-.04s-.41-.08-.62-.17c-.22-.08-.43-.2-.65-.36-.22-.15-.41-.36-.58-.62-.17-.26-.31-.59-.42-.97-.11-.39-.16-.85-.16-1.38v-6.9h-1.14v7.02c0,.46,.06,.96,.17,1.48,.11,.52,.32,1,.62,1.45,.31,.44,.72,.81,1.25,1.1,.53,.29,1.21,.43,2.06,.43s1.51-.14,2.05-.43c.53-.29,.95-.66,1.26-1.1,.31-.44,.51-.93,.62-1.45,.11-.52,.17-1.01,.17-1.48v-7.02Zm-24.15,5.99h1.9l3.07,5.2h1.39l-3.23-5.31c.93-.09,1.64-.39,2.13-.93,.49-.53,.74-1.19,.74-1.97,0-1-.33-1.75-.99-2.25s-1.56-.74-2.7-.74h-3.45v11.2h1.14v-5.2Zm0-4.95h2.02c.51,0,.94,.05,1.29,.15s.63,.24,.85,.42c.21,.18,.36,.39,.46,.62,.1,.24,.14,.49,.14,.75s-.05,.53-.14,.77c-.1,.24-.25,.44-.46,.62s-.49,.31-.85,.42c-.35,.11-.78,.16-1.29,.16h-2.02v-3.91Zm-14.53,0h3.75v-1.04h-8.63v1.04h3.75v10.15h1.14v-10.15Zm-14,.03c-.44-.51-.92-.86-1.44-1.06-.52-.2-1.09-.3-1.72-.3-.45,0-.9,.06-1.33,.19-.43,.13-.82,.32-1.16,.58-.34,.26-.62,.6-.82,1-.21,.4-.31,.87-.31,1.41s.08,.95,.24,1.29c.16,.34,.38,.63,.65,.85,.27,.23,.58,.41,.92,.56,.34,.15,.7,.28,1.06,.4,.36,.12,.72,.23,1.06,.35,.34,.12,.65,.26,.92,.44s.49,.39,.65,.65c.16,.26,.25,.58,.25,.97,0,.33-.07,.62-.22,.87-.15,.25-.33,.47-.56,.64s-.48,.31-.76,.4c-.28,.09-.57,.13-.85,.13-.59,0-1.1-.12-1.53-.37s-.77-.58-1.01-.99l-1.04,.74c.43,.59,.96,1.01,1.57,1.27,.62,.26,1.27,.39,1.95,.39,.44,0,.88-.07,1.32-.22,.44-.15,.83-.36,1.19-.63,.35-.27,.64-.61,.85-1.02s.32-.86,.32-1.37c0-.67-.14-1.21-.43-1.6-.29-.39-.64-.7-1.06-.94-.42-.24-.88-.43-1.38-.57-.5-.14-.96-.3-1.38-.48-.42-.18-.78-.41-1.06-.69-.28-.28-.43-.67-.43-1.18,0-.35,.07-.65,.21-.91,.14-.26,.32-.47,.55-.63,.23-.16,.48-.28,.77-.36,.28-.08,.57-.12,.87-.12,.95,0,1.67,.36,2.17,1.09l1-.77Zm-25.08-1.08h-1.42v11.2h1.14v-9.58h.03l6.67,9.58h1.42v-11.2h-1.14v9.49h-.03l-6.67-9.49Zm-12.05,3.24c-.3-.72-.7-1.34-1.23-1.86-.52-.52-1.14-.93-1.85-1.23-.71-.3-1.48-.44-2.32-.44s-1.6,.15-2.32,.44c-.71,.3-1.33,.7-1.85,1.23-.52,.52-.93,1.14-1.22,1.86-.3,.72-.44,1.5-.44,2.36s.15,1.64,.44,2.36c.29,.72,.7,1.34,1.22,1.86,.52,.52,1.14,.93,1.85,1.23,.71,.3,1.48,.44,2.32,.44s1.61-.15,2.32-.44c.71-.3,1.33-.7,1.85-1.23,.52-.52,.93-1.14,1.23-1.86,.29-.72,.44-1.5,.44-2.36s-.15-1.64-.44-2.36m-1.11,4.2c-.21,.59-.51,1.1-.91,1.54-.4,.44-.88,.8-1.45,1.06-.57,.26-1.21,.4-1.93,.4s-1.36-.13-1.93-.4c-.57-.26-1.05-.62-1.45-1.06-.39-.44-.7-.96-.91-1.54-.21-.58-.32-1.2-.32-1.84s.11-1.26,.32-1.84c.21-.59,.51-1.1,.91-1.54,.4-.44,.88-.8,1.45-1.06,.57-.26,1.21-.4,1.93-.4s1.36,.13,1.93,.4c.57,.26,1.05,.62,1.45,1.06,.4,.44,.7,.96,.91,1.54,.21,.58,.32,1.2,.32,1.84s-.11,1.26-.32,1.84m-20.12,1.32c-.21,.33-.44,.6-.69,.81-.25,.22-.51,.39-.79,.51-.28,.13-.56,.22-.85,.27-.29,.05-.58,.08-.88,.08-.72,0-1.36-.13-1.93-.4-.57-.26-1.05-.62-1.45-1.06-.39-.44-.7-.96-.91-1.54-.21-.58-.32-1.2-.32-1.84s.11-1.26,.32-1.84c.21-.59,.51-1.1,.91-1.54,.4-.44,.88-.8,1.45-1.06,.57-.26,1.21-.4,1.93-.4,.3,0,.59,.04,.89,.13,.29,.09,.57,.19,.83,.33,.26,.14,.49,.3,.69,.48,.2,.18,.36,.36,.48,.54l1-.74c-.49-.63-1.09-1.09-1.79-1.36s-1.39-.41-2.09-.41c-.83,0-1.61,.15-2.32,.44-.71,.3-1.33,.7-1.85,1.23-.52,.52-.93,1.14-1.22,1.86-.3,.72-.44,1.5-.44,2.36s.15,1.64,.44,2.36c.29,.72,.7,1.34,1.22,1.86,.52,.52,1.14,.93,1.85,1.23,.71,.3,1.48,.44,2.32,.44,.46,0,.9-.05,1.32-.16,.42-.11,.8-.25,1.16-.43,.36-.18,.68-.4,.96-.66,.28-.25,.51-.52,.7-.81l-.93-.66Z"/>
</svg>